<svg width="21" height="11" viewBox="0 0 21 11" fill="none" xmlns="http://www.w3.org/2000/svg">
<path d="M0.462242 0.420639C0.758305 0.151304 1.1598 0 1.57843 0C1.99707 0 2.39856 0.151304 2.69462 0.420639L10.5095 7.53218L18.3244 0.420639C18.6222 0.158937 19.021 0.0141279 19.4349 0.0174012C19.8489 0.0206745 20.2449 0.171768 20.5376 0.438139C20.8303 0.70451 20.9963 1.06485 20.9999 1.44154C21.0035 1.81823 20.8444 2.18114 20.5568 2.4521L11.6257 10.5794C11.3297 10.8487 10.9282 11 10.5095 11C10.0909 11 9.68941 10.8487 9.39334 10.5794L0.462242 2.4521C0.166269 2.18268 0 1.81732 0 1.43637C0 1.05541 0.166269 0.690055 0.462242 0.420639Z" fill="black"/>
</svg>
