<svg width="17" height="16" viewBox="0 0 17 16" fill="none" xmlns="http://www.w3.org/2000/svg">
<path d="M1.636 10.707C1.82353 10.8945 2.07784 10.9998 2.343 10.9998C2.60817 10.9998 2.86247 10.8945 3.05 10.707L8 5.75705L12.95 10.707C13.1386 10.8892 13.3912 10.99 13.6534 10.9877C13.9156 10.9854 14.1664 10.8803 14.3518 10.6949C14.5372 10.5095 14.6424 10.2586 14.6447 9.99645C14.647 9.73425 14.5462 9.48165 14.364 9.29305L8.707 3.63605C8.51947 3.44858 8.26517 3.34326 8 3.34326C7.73484 3.34326 7.48053 3.44858 7.293 3.63605L1.636 9.29305C1.44853 9.48058 1.34322 9.73488 1.34322 10C1.34322 10.2652 1.44853 10.5195 1.636 10.707Z" fill="white"/>
</svg>
