<svg width="20" height="19" viewBox="0 0 20 19" fill="none" xmlns="http://www.w3.org/2000/svg">
<path d="M17.1196 16.6249L13.6814 13.1867M13.6814 13.1867C14.2695 12.5986 14.736 11.9004 15.0543 11.132C15.3726 10.3636 15.5364 9.53998 15.5364 8.70825C15.5364 7.87653 15.3726 7.05294 15.0543 6.28453C14.736 5.51611 14.2695 4.81791 13.6814 4.22979C13.0933 3.64167 12.3951 3.17515 11.6267 2.85686C10.8583 2.53858 10.0347 2.37476 9.20294 2.37476C8.37122 2.37476 7.54763 2.53858 6.77922 2.85686C6.0108 3.17515 5.3126 3.64167 4.72448 4.22979C3.53672 5.41756 2.86945 7.0285 2.86945 8.70825C2.86945 10.388 3.53672 11.9989 4.72448 13.1867C5.91224 14.3745 7.52319 15.0417 9.20294 15.0417C10.8827 15.0417 12.4936 14.3745 13.6814 13.1867Z" stroke="#8B8B8B" stroke-width="2" stroke-linecap="round" stroke-linejoin="round"/>
</svg>
