<svg width="27" height="26" viewBox="0 0 27 26" fill="none" xmlns="http://www.w3.org/2000/svg">
<path d="M22.6759 17.3428C22.5997 17.2549 22.5055 17.1844 22.3997 17.136C22.2938 17.0876 22.1789 17.0626 22.0625 17.0625H20.4375V15.4375C20.4375 14.5421 19.7087 13.8125 18.8125 13.8125H15.5625C14.6663 13.8125 13.9375 14.5421 13.9375 15.4375V17.0625H12.3125C12.196 17.0625 12.0809 17.0875 11.975 17.1359C11.8691 17.1842 11.7747 17.2548 11.6985 17.3428C11.6222 17.4308 11.5657 17.5341 11.5329 17.6459C11.5 17.7576 11.4916 17.8751 11.5081 17.9904L12.3206 23.6779C12.3484 23.8714 12.445 24.0484 12.5928 24.1765C12.7405 24.3045 12.9295 24.375 13.125 24.375H21.25C21.4455 24.375 21.6345 24.3045 21.7822 24.1765C21.93 24.0484 22.0266 23.8714 22.0544 23.6779L22.8669 17.9904C22.8833 17.8751 22.8748 17.7576 22.8419 17.6458C22.8089 17.5341 22.7523 17.4308 22.6759 17.3428ZM15.5625 15.4375H18.8125V17.0625H15.5625V15.4375ZM20.5456 22.75H13.8294L13.2493 18.6875H21.1257L20.5456 22.75ZM6.625 16.25H8.25V24.375H6.625V16.25Z" fill="black"/>
<path d="M12.1338 14.5234L10.5851 12.5864L9.4135 9.65737C9.2335 9.20432 8.92136 8.8159 8.51766 8.54261C8.11396 8.26932 7.63738 8.12381 7.14987 8.125H2.5625C1.21862 8.125 0.125 9.21863 0.125 10.5625V16.25C0.125 17.1462 0.853812 17.875 1.75 17.875H2.5625V24.375H4.1875V16.25H1.75V10.5625C1.75 10.347 1.8356 10.1403 1.98798 9.98798C2.14035 9.8356 2.34701 9.75 2.5625 9.75H7.14987C7.48381 9.75 7.78038 9.95069 7.90388 10.2611L9.24044 13.5078L10.8654 15.5391L12.1338 14.5234ZM1.75 4.0625C1.75 2.27012 3.20762 0.8125 5 0.8125C6.79238 0.8125 8.25 2.27012 8.25 4.0625C8.25 5.85488 6.79238 7.3125 5 7.3125C3.20762 7.3125 1.75 5.85488 1.75 4.0625ZM3.375 4.0625C3.375 4.95869 4.10381 5.6875 5 5.6875C5.89619 5.6875 6.625 4.95869 6.625 4.0625C6.625 3.16631 5.89619 2.4375 5 2.4375C4.10381 2.4375 3.375 3.16631 3.375 4.0625Z" fill="black"/>
</svg>
