<svg width="25" height="23" viewBox="0 0 25 23" fill="none" xmlns="http://www.w3.org/2000/svg">
<path fill-rule="evenodd" clip-rule="evenodd" d="M21.826 7.66658C21.9693 8.2954 22.0417 8.93831 22.0417 9.58325H13.4167V0.958252C15.3711 0.958244 17.2675 1.622 18.7953 2.84077C20.3231 4.05954 21.3917 5.76107 21.826 7.66658ZM19.8452 7.66658C19.5269 6.59905 18.9477 5.62759 18.16 4.83989C17.3723 4.0522 16.4009 3.47306 15.3333 3.15475V7.66658H19.8452Z" fill="white"/>
<path fill-rule="evenodd" clip-rule="evenodd" d="M0.958332 13.4165C0.958327 12.121 1.25017 10.8421 1.81218 9.67487C2.37419 8.50761 3.19193 7.48194 4.20469 6.67404C5.21744 5.86614 6.39918 5.29677 7.66215 5.00819C8.92512 4.71962 10.2369 4.71927 11.5 5.00716V11.4999H17.9927C18.2625 12.6835 18.2793 13.9108 18.0421 15.1014C17.805 16.292 17.3191 17.4192 16.6164 18.4091C15.9136 19.399 15.0098 20.2295 13.964 20.8461C12.9183 21.4627 11.7541 21.8516 10.5477 21.9873C9.34131 22.123 8.11985 22.0026 6.96321 21.6338C5.80657 21.265 4.74082 20.6562 3.83566 19.8472C2.93049 19.0381 2.20631 18.0472 1.71049 16.939C1.21466 15.8309 0.958353 14.6305 0.958332 13.4165ZM16.1038 13.4165H9.58333V6.89604C8.2937 6.89604 7.03303 7.27846 5.96074 7.99494C4.88845 8.71142 4.0527 9.72979 3.55918 10.9213C3.06565 12.1127 2.93653 13.4238 3.18812 14.6886C3.43972 15.9535 4.06073 17.1153 4.97264 18.0272C5.88455 18.9391 7.04639 19.5602 8.31125 19.8117C9.5761 20.0633 10.8872 19.9342 12.0786 19.4407C13.2701 18.9472 14.2884 18.1114 15.0049 17.0391C15.7214 15.9668 16.1038 14.7062 16.1038 13.4165Z" fill="white"/>
</svg>
