<svg width="25" height="23" viewBox="0 0 25 23" fill="none" xmlns="http://www.w3.org/2000/svg">
<path fill-rule="evenodd" clip-rule="evenodd" d="M21.326 7.66658C21.4693 8.2954 21.5417 8.93831 21.5417 9.58325H12.9167V0.958252C14.8711 0.958244 16.7675 1.622 18.2953 2.84077C19.8231 4.05954 20.8917 5.76107 21.326 7.66658ZM19.3452 7.66658C19.0269 6.59905 18.4477 5.62759 17.66 4.83989C16.8723 4.0522 15.9009 3.47306 14.8333 3.15475V7.66658H19.3452Z" fill="black"/>
<path fill-rule="evenodd" clip-rule="evenodd" d="M0.458332 13.4165C0.458327 12.121 0.750166 10.8421 1.31218 9.67487C1.87419 8.50761 2.69193 7.48194 3.70469 6.67404C4.71744 5.86614 5.89918 5.29677 7.16215 5.00819C8.42512 4.71962 9.73687 4.71927 11 5.00716V11.4999H17.4927C17.7625 12.6835 17.7793 13.9108 17.5421 15.1014C17.305 16.292 16.8191 17.4192 16.1164 18.4091C15.4136 19.399 14.5098 20.2295 13.464 20.8461C12.4183 21.4627 11.2541 21.8516 10.0477 21.9873C8.84131 22.123 7.61985 22.0026 6.46321 21.6338C5.30657 21.265 4.24082 20.6562 3.33566 19.8472C2.43049 19.0381 1.70631 18.0472 1.21049 16.939C0.71466 15.8309 0.458353 14.6305 0.458332 13.4165ZM15.6038 13.4165H9.08333V6.89604C7.7937 6.89604 6.53303 7.27846 5.46074 7.99494C4.38845 8.71142 3.5527 9.72979 3.05918 10.9213C2.56565 12.1127 2.43653 13.4238 2.68812 14.6886C2.93972 15.9535 3.56073 17.1153 4.47264 18.0272C5.38455 18.9391 6.54639 19.5602 7.81125 19.8117C9.0761 20.0633 10.3872 19.9342 11.5786 19.4407C12.7701 18.9472 13.7884 18.1114 14.5049 17.0391C15.2214 15.9668 15.6038 14.7062 15.6038 13.4165Z" fill="black"/>
</svg>
