<svg width="79" height="21" viewBox="0 0 79 21" fill="none" xmlns="http://www.w3.org/2000/svg">
<path d="M34.46 12.532C34.46 12.78 34.444 13.004 34.412 13.204H29.36C29.4 13.732 29.596 14.156 29.948 14.476C30.3 14.796 30.732 14.956 31.244 14.956C31.98 14.956 32.5 14.648 32.804 14.032H34.28C34.08 14.64 33.716 15.14 33.188 15.532C32.668 15.916 32.02 16.108 31.244 16.108C30.612 16.108 30.044 15.968 29.54 15.688C29.044 15.4 28.652 15 28.364 14.488C28.084 13.968 27.944 13.368 27.944 12.688C27.944 12.008 28.08 11.412 28.352 10.9C28.632 10.38 29.02 9.98 29.516 9.7C30.02 9.42 30.596 9.28 31.244 9.28C31.868 9.28 32.424 9.416 32.912 9.688C33.4 9.96 33.78 10.344 34.052 10.84C34.324 11.328 34.46 11.892 34.46 12.532ZM33.032 12.1C33.024 11.596 32.844 11.192 32.492 10.888C32.14 10.584 31.704 10.432 31.184 10.432C30.712 10.432 30.308 10.584 29.972 10.888C29.636 11.184 29.436 11.588 29.372 12.1H33.032ZM38.6383 12.652L40.7743 16H39.2263L37.7983 13.756L36.4543 16H35.0263L37.1623 12.748L35.0263 9.388H36.5743L38.0023 11.632L39.3463 9.388H40.7743L38.6383 12.652ZM43.1625 10.36C43.3945 10.056 43.7105 9.8 44.1105 9.592C44.5105 9.384 44.9625 9.28 45.4665 9.28C46.0425 9.28 46.5665 9.424 47.0385 9.712C47.5185 9.992 47.8945 10.388 48.1665 10.9C48.4385 11.412 48.5745 12 48.5745 12.664C48.5745 13.328 48.4385 13.924 48.1665 14.452C47.8945 14.972 47.5185 15.38 47.0385 15.676C46.5665 15.964 46.0425 16.108 45.4665 16.108C44.9625 16.108 44.5145 16.008 44.1225 15.808C43.7305 15.6 43.4105 15.344 43.1625 15.04V19.144H41.7945V9.388H43.1625V10.36ZM47.1825 12.664C47.1825 12.208 47.0865 11.816 46.8945 11.488C46.7105 11.152 46.4625 10.9 46.1505 10.732C45.8465 10.556 45.5185 10.468 45.1665 10.468C44.8225 10.468 44.4945 10.556 44.1825 10.732C43.8785 10.908 43.6305 11.164 43.4385 11.5C43.2545 11.836 43.1625 12.232 43.1625 12.688C43.1625 13.144 43.2545 13.544 43.4385 13.888C43.6305 14.224 43.8785 14.48 44.1825 14.656C44.4945 14.832 44.8225 14.92 45.1665 14.92C45.5185 14.92 45.8465 14.832 46.1505 14.656C46.4625 14.472 46.7105 14.208 46.8945 13.864C47.0865 13.52 47.1825 13.12 47.1825 12.664ZM55.9873 12.532C55.9873 12.78 55.9713 13.004 55.9393 13.204H50.8873C50.9273 13.732 51.1233 14.156 51.4753 14.476C51.8273 14.796 52.2593 14.956 52.7713 14.956C53.5073 14.956 54.0273 14.648 54.3313 14.032H55.8073C55.6073 14.64 55.2433 15.14 54.7153 15.532C54.1953 15.916 53.5473 16.108 52.7713 16.108C52.1393 16.108 51.5713 15.968 51.0673 15.688C50.5713 15.4 50.1793 15 49.8913 14.488C49.6113 13.968 49.4713 13.368 49.4713 12.688C49.4713 12.008 49.6073 11.412 49.8793 10.9C50.1593 10.38 50.5473 9.98 51.0433 9.7C51.5473 9.42 52.1233 9.28 52.7713 9.28C53.3953 9.28 53.9513 9.416 54.4393 9.688C54.9273 9.96 55.3073 10.344 55.5793 10.84C55.8513 11.328 55.9873 11.892 55.9873 12.532ZM54.5593 12.1C54.5513 11.596 54.3713 11.192 54.0193 10.888C53.6673 10.584 53.2313 10.432 52.7113 10.432C52.2393 10.432 51.8353 10.584 51.4993 10.888C51.1633 11.184 50.9633 11.588 50.8993 12.1H54.5593ZM60.6696 9.28C61.1896 9.28 61.6536 9.388 62.0616 9.604C62.4776 9.82 62.8016 10.14 63.0336 10.564C63.2656 10.988 63.3816 11.5 63.3816 12.1V16H62.0256V12.304C62.0256 11.712 61.8776 11.26 61.5816 10.948C61.2856 10.628 60.8816 10.468 60.3696 10.468C59.8576 10.468 59.4496 10.628 59.1456 10.948C58.8496 11.26 58.7016 11.712 58.7016 12.304V16H57.3336V9.388H58.7016V10.144C58.9256 9.872 59.2096 9.66 59.5536 9.508C59.9056 9.356 60.2776 9.28 60.6696 9.28ZM67.5266 16.108C67.0066 16.108 66.5386 16.016 66.1226 15.832C65.7146 15.64 65.3906 15.384 65.1506 15.064C64.9106 14.736 64.7826 14.372 64.7666 13.972H66.1826C66.2066 14.252 66.3386 14.488 66.5786 14.68C66.8266 14.864 67.1346 14.956 67.5026 14.956C67.8866 14.956 68.1826 14.884 68.3906 14.74C68.6066 14.588 68.7146 14.396 68.7146 14.164C68.7146 13.916 68.5946 13.732 68.3546 13.612C68.1226 13.492 67.7506 13.36 67.2386 13.216C66.7426 13.08 66.3386 12.948 66.0266 12.82C65.7146 12.692 65.4426 12.496 65.2106 12.232C64.9866 11.968 64.8746 11.62 64.8746 11.188C64.8746 10.836 64.9786 10.516 65.1866 10.228C65.3946 9.932 65.6906 9.7 66.0746 9.532C66.4666 9.364 66.9146 9.28 67.4186 9.28C68.1706 9.28 68.7746 9.472 69.2306 9.856C69.6946 10.232 69.9426 10.748 69.9746 11.404H68.6066C68.5826 11.108 68.4626 10.872 68.2466 10.696C68.0306 10.52 67.7386 10.432 67.3706 10.432C67.0106 10.432 66.7346 10.5 66.5426 10.636C66.3506 10.772 66.2546 10.952 66.2546 11.176C66.2546 11.352 66.3186 11.5 66.4466 11.62C66.5746 11.74 66.7306 11.836 66.9146 11.908C67.0986 11.972 67.3706 12.056 67.7306 12.16C68.2106 12.288 68.6026 12.42 68.9066 12.556C69.2186 12.684 69.4866 12.876 69.7106 13.132C69.9346 13.388 70.0506 13.728 70.0586 14.152C70.0586 14.528 69.9546 14.864 69.7466 15.16C69.5386 15.456 69.2426 15.688 68.8586 15.856C68.4826 16.024 68.0386 16.108 67.5266 16.108ZM77.5967 12.532C77.5967 12.78 77.5807 13.004 77.5487 13.204H72.4967C72.5367 13.732 72.7327 14.156 73.0847 14.476C73.4367 14.796 73.8687 14.956 74.3807 14.956C75.1167 14.956 75.6367 14.648 75.9407 14.032H77.4167C77.2167 14.64 76.8527 15.14 76.3247 15.532C75.8047 15.916 75.1567 16.108 74.3807 16.108C73.7487 16.108 73.1807 15.968 72.6767 15.688C72.1807 15.4 71.7887 15 71.5007 14.488C71.2207 13.968 71.0807 13.368 71.0807 12.688C71.0807 12.008 71.2167 11.412 71.4887 10.9C71.7687 10.38 72.1567 9.98 72.6527 9.7C73.1567 9.42 73.7327 9.28 74.3807 9.28C75.0047 9.28 75.5607 9.416 76.0487 9.688C76.5367 9.96 76.9167 10.344 77.1887 10.84C77.4607 11.328 77.5967 11.892 77.5967 12.532ZM76.1687 12.1C76.1607 11.596 75.9807 11.192 75.6287 10.888C75.2767 10.584 74.8407 10.432 74.3207 10.432C73.8487 10.432 73.4447 10.584 73.1087 10.888C72.7727 11.184 72.5727 11.588 72.5087 12.1H76.1687Z" fill="#FF4D4D"/>
<path d="M14.9091 10.0869C14.8549 10.0326 14.7906 9.98948 14.7197 9.96007C14.6488 9.93066 14.5729 9.91553 14.4961 9.91553C14.4194 9.91553 14.3434 9.93066 14.2726 9.96007C14.2017 9.98948 14.1373 10.0326 14.0831 10.0869L10.9961 13.1751L7.90913 10.0869C7.7996 9.97737 7.65104 9.91583 7.49613 9.91583C7.34123 9.91583 7.19267 9.97737 7.08313 10.0869C6.9736 10.1964 6.91207 10.345 6.91207 10.4999C6.91207 10.6548 6.9736 10.8034 7.08313 10.9129L10.5831 14.4129C10.6373 14.4672 10.7017 14.5103 10.7726 14.5397C10.8434 14.5691 10.9194 14.5843 10.9961 14.5843C11.0729 14.5843 11.1488 14.5691 11.2197 14.5397C11.2906 14.5103 11.3549 14.4672 11.4091 14.4129L14.4961 11.3247L20.088 16.9166H17.4128C17.2581 16.9166 17.1097 16.978 17.0003 17.0874C16.8909 17.1968 16.8295 17.3452 16.8295 17.4999C16.8295 17.6546 16.8909 17.803 17.0003 17.9124C17.1097 18.0218 17.2581 18.0832 17.4128 18.0832H21.4961C21.6508 18.0832 21.7992 18.0218 21.9086 17.9124C22.018 17.803 22.0795 17.6546 22.0795 17.4999V13.4166C22.0795 13.2619 22.018 13.1135 21.9086 13.0041C21.7992 12.8947 21.6508 12.8332 21.4961 12.8332C21.3414 12.8332 21.1931 12.8947 21.0837 13.0041C20.9743 13.1135 20.9128 13.2619 20.9128 13.4166V16.0917L14.9091 10.0869Z" fill="#FF4D4D"/>
</svg>
