<svg width="27" height="26" viewBox="0 0 27 26" fill="none" xmlns="http://www.w3.org/2000/svg">
<path d="M1.20834 18.958C1.20834 21.0012 1.20834 22.0217 1.84317 22.6565C2.478 23.2913 3.4985 23.2913 5.54167 23.2913H17.4583C19.5015 23.2913 20.522 23.2913 21.1568 22.6565C21.7917 22.0217 21.7917 21.0012 21.7917 18.958M1.20834 18.958H21.7917M1.20834 18.958L2.621 12.601C2.98284 10.9749 3.16267 10.1613 3.75742 9.68467C4.35217 9.20801 5.18417 9.20801 6.85142 9.20801H16.1486C17.8158 9.20801 18.6489 9.20801 19.2426 9.68467C19.8373 10.1613 20.0172 10.9738 20.3801 12.601L21.7917 18.958M9.33334 21.1247H13.6667M16.375 5.95801V9.20801M6.625 12.458H7.16667M11.2292 12.458H11.7708M15.8333 12.458H16.375M6.625 15.708H7.16667M11.2292 15.708H11.7708M15.8333 15.708H16.375M14.75 5.95801H18C18.5048 5.95801 18.7573 5.95801 18.9566 5.87567C19.2215 5.76549 19.4319 5.55471 19.5416 5.28959C19.625 5.09026 19.625 4.83784 19.625 4.33301C19.625 3.82817 19.625 3.57576 19.5427 3.37642C19.4325 3.11151 19.2217 2.90112 18.9566 2.79142C18.7573 2.70801 18.5048 2.70801 18 2.70801H14.75C14.2452 2.70801 13.9928 2.70801 13.7934 2.79034C13.5285 2.90053 13.3181 3.1113 13.2084 3.37642C13.125 3.57576 13.125 3.82817 13.125 4.33301C13.125 4.83784 13.125 5.09026 13.2073 5.28959C13.3175 5.55451 13.5283 5.7649 13.7934 5.87459C13.9928 5.95801 14.2452 5.95801 14.75 5.95801Z" stroke="black" stroke-width="1.5" stroke-linecap="round" stroke-linejoin="round"/>
</svg>
