<svg width="26" height="26" viewBox="0 0 26 26" fill="none" xmlns="http://www.w3.org/2000/svg">
<path d="M3.91667 5.41634H6.08333V6.49967C6.08333 7.69134 7.05833 8.66634 8.25 8.66634H14.75C15.9417 8.66634 16.9167 7.69134 16.9167 6.49967V5.41634H19.0833V10.833H21.25V5.41634C21.25 4.22467 20.275 3.24967 19.0833 3.24967H14.555C14.1 1.99301 12.9083 1.08301 11.5 1.08301C10.0917 1.08301 8.9 1.99301 8.445 3.24967H3.91667C2.725 3.24967 1.75 4.22467 1.75 5.41634V20.583C1.75 21.7747 2.725 22.7497 3.91667 22.7497H10.4167V20.583H3.91667V5.41634ZM11.5 3.24967C12.0958 3.24967 12.5833 3.73717 12.5833 4.33301C12.5833 4.92884 12.0958 5.41634 11.5 5.41634C10.9042 5.41634 10.4167 4.92884 10.4167 4.33301C10.4167 3.73717 10.9042 3.24967 11.5 3.24967Z" fill="#E4763F"/>
<path d="M22.0625 13.2706C21.6183 12.8265 20.8817 12.8265 20.4375 13.2706L15.3025 18.4165L12.8542 15.979C12.41 15.5348 11.6842 15.5348 11.2292 15.979C10.785 16.4231 10.785 17.1598 11.2292 17.604L14.5333 20.8973C14.9558 21.3198 15.6383 21.3198 16.0608 20.8973L22.0517 14.8956C22.5067 14.4515 22.5067 13.7148 22.0625 13.2706Z" fill="#E4763F"/>
</svg>
