<svg width="24" height="24" viewBox="0 0 24 24" fill="none" xmlns="http://www.w3.org/2000/svg">
<path d="M20.943 16.835C20.3949 13.5635 18.8286 10.5484 16.467 8.219C15.95 7.716 15.692 7.465 15.121 7.233C14.55 7 14.059 7 13.078 7H10.922C9.94101 7 9.45001 7 8.87901 7.233C8.30901 7.465 8.04901 7.716 7.53301 8.219C5.17147 10.5484 3.60511 13.5635 3.05701 16.835C2.57001 19.773 5.28001 22 8.30801 22H15.692C18.721 22 21.432 19.773 20.942 16.835" stroke="white" stroke-width="1.5" stroke-linecap="round" stroke-linejoin="round"/>
<path d="M13.627 12.919C13.411 12.12 12.31 11.4 10.989 11.939C9.668 12.478 9.459 14.211 11.456 14.396C12.36 14.479 12.948 14.299 13.487 14.808C14.027 15.316 14.127 16.731 12.748 17.112C11.371 17.493 10.006 16.898 9.858 16.052M11.842 10.992V11.753M11.842 17.229V17.993M7.257 4.443C7.05 4.143 6.751 3.735 7.369 3.643C8.004 3.547 8.663 3.981 9.309 3.973C9.892 3.964 10.189 3.705 10.509 3.335C10.845 2.946 11.365 2 12 2C12.635 2 13.155 2.946 13.491 3.335C13.811 3.705 14.108 3.965 14.691 3.972C15.337 3.982 15.996 3.547 16.631 3.642C17.249 3.735 16.95 4.142 16.743 4.442L15.811 5.801C15.411 6.381 15.212 6.671 14.794 6.836C14.376 7.001 13.837 7 12.758 7H11.242C10.162 7 9.623 7 9.206 6.836C8.789 6.672 8.589 6.38 8.189 5.8L7.257 4.443Z" stroke="white" stroke-width="1.5" stroke-linecap="round" stroke-linejoin="round"/>
</svg>
