<svg width="30" height="28" viewBox="0 0 30 28" fill="none" xmlns="http://www.w3.org/2000/svg">
<path d="M7.66667 23.3337C6.69444 23.3337 5.86806 22.9934 5.1875 22.3128C4.50694 21.6323 4.16667 20.8059 4.16667 19.8337H2.67917C2.34861 19.8337 2.07133 19.7217 1.84733 19.4977C1.62333 19.2737 1.51172 18.9968 1.5125 18.667C1.51328 18.3372 1.62528 18.0603 1.8485 17.8363C2.07172 17.6123 2.34861 17.5003 2.67917 17.5003H5.07083C5.40139 17.1309 5.79028 16.8443 6.2375 16.6405C6.68472 16.4367 7.16111 16.3344 7.66667 16.3337C8.17222 16.3329 8.64861 16.4352 9.09583 16.6405C9.54306 16.8458 9.93194 17.1324 10.2625 17.5003H15.1333L17.5833 7.00033H6.20833C5.87778 7.00033 5.60089 6.88833 5.37767 6.66433C5.15444 6.44033 5.04244 6.16344 5.04167 5.83366C5.04089 5.50388 5.15289 5.22699 5.37767 5.00299C5.60244 4.77899 5.87933 4.66699 6.20833 4.66699H19.0417C19.4306 4.66699 19.7417 4.81283 19.975 5.10449C20.2083 5.39616 20.2764 5.72671 20.1792 6.09616L19.4208 9.33366H21.6667C22.0361 9.33366 22.3861 9.41649 22.7167 9.58216C23.0472 9.74783 23.3194 9.9761 23.5333 10.267L25.7208 13.1545C25.9347 13.4267 26.0708 13.7234 26.1292 14.0447C26.1875 14.3659 26.1875 14.6914 26.1292 15.0212L25.3417 18.9003C25.2833 19.1725 25.1472 19.3962 24.9333 19.5712C24.7194 19.7462 24.4764 19.8337 24.2042 19.8337H22.8333C22.8333 20.8059 22.4931 21.6323 21.8125 22.3128C21.1319 22.9934 20.3056 23.3337 19.3333 23.3337C18.3611 23.3337 17.5347 22.9934 16.8542 22.3128C16.1736 21.6323 15.8333 20.8059 15.8333 19.8337H11.1667C11.1667 20.8059 10.8264 21.6323 10.1458 22.3128C9.46528 22.9934 8.63889 23.3337 7.66667 23.3337ZM18.0792 15.167H23.7083L23.825 14.5545L21.6667 11.667H18.8958L18.0792 15.167ZM15.1917 17.2962L15.3818 16.4503C15.5078 15.8864 15.6681 15.1962 15.8625 14.3795C15.9208 14.1267 15.9792 13.8934 16.0375 13.6795C16.0958 13.4656 16.1444 13.2517 16.1833 13.0378L16.3735 12.192C16.4995 11.6281 16.6597 10.9378 16.8542 10.1212C17.0486 9.30449 17.2092 8.61421 17.336 8.05033L17.525 7.20449L17.5833 7.00033L15.1333 17.5003L15.1917 17.2962ZM1.54167 15.5462C1.21111 15.5462 0.934222 15.4345 0.711 15.2113C0.487778 14.9881 0.375778 14.7108 0.375 14.3795C0.374222 14.0482 0.486222 13.7713 0.711 13.5488C0.935778 13.3264 1.21267 13.2144 1.54167 13.2128H5.625C5.95556 13.2128 6.23283 13.3248 6.45683 13.5488C6.68083 13.7728 6.79244 14.0497 6.79167 14.3795C6.79089 14.7093 6.67889 14.9865 6.45567 15.2113C6.23244 15.4361 5.95556 15.5477 5.625 15.5462H1.54167ZM3.875 11.2878C3.54444 11.2878 3.26756 11.1758 3.04433 10.9518C2.82111 10.7278 2.70911 10.4509 2.70833 10.1212C2.70756 9.79138 2.81956 9.51449 3.04433 9.29049C3.26911 9.06649 3.546 8.95449 3.875 8.95449H9.125C9.45555 8.95449 9.73283 9.06649 9.95683 9.29049C10.1808 9.51449 10.2924 9.79138 10.2917 10.1212C10.2909 10.4509 10.1789 10.7282 9.95567 10.953C9.73244 11.1778 9.45555 11.2894 9.125 11.2878H3.875ZM7.66667 21.0003C7.99722 21.0003 8.2745 20.8883 8.4985 20.6643C8.7225 20.4403 8.83411 20.1634 8.83333 19.8337C8.83256 19.5039 8.72056 19.227 8.49733 19.003C8.27411 18.779 7.99722 18.667 7.66667 18.667C7.33611 18.667 7.05922 18.779 6.836 19.003C6.61278 19.227 6.50078 19.5039 6.5 19.8337C6.49922 20.1634 6.61122 20.4407 6.836 20.6655C7.06078 20.8903 7.33767 21.0019 7.66667 21.0003ZM19.3333 21.0003C19.6639 21.0003 19.9412 20.8883 20.1652 20.6643C20.3892 20.4403 20.5008 20.1634 20.5 19.8337C20.4992 19.5039 20.3872 19.227 20.164 19.003C19.9408 18.779 19.6639 18.667 19.3333 18.667C19.0028 18.667 18.7259 18.779 18.5027 19.003C18.2794 19.227 18.1674 19.5039 18.1667 19.8337C18.1659 20.1634 18.2779 20.4407 18.5027 20.6655C18.7274 20.8903 19.0043 21.0019 19.3333 21.0003Z" fill="#E4763F"/>
</svg>
