<svg width="78" height="18" viewBox="0 0 78 18" fill="none" xmlns="http://www.w3.org/2000/svg">
<path d="M26.736 6.28C27.256 6.28 27.72 6.388 28.128 6.604C28.544 6.82 28.868 7.14 29.1 7.564C29.332 7.988 29.448 8.5 29.448 9.1V13H28.092V9.304C28.092 8.712 27.944 8.26 27.648 7.948C27.352 7.628 26.948 7.468 26.436 7.468C25.924 7.468 25.516 7.628 25.212 7.948C24.916 8.26 24.768 8.712 24.768 9.304V13H23.4V6.388H24.768V7.144C24.992 6.872 25.276 6.66 25.62 6.508C25.972 6.356 26.344 6.28 26.736 6.28ZM37.253 9.532C37.253 9.78 37.237 10.004 37.205 10.204H32.153C32.193 10.732 32.389 11.156 32.741 11.476C33.093 11.796 33.525 11.956 34.037 11.956C34.773 11.956 35.293 11.648 35.597 11.032H37.073C36.873 11.64 36.509 12.14 35.981 12.532C35.461 12.916 34.813 13.108 34.037 13.108C33.405 13.108 32.837 12.968 32.333 12.688C31.837 12.4 31.445 12 31.157 11.488C30.877 10.968 30.737 10.368 30.737 9.688C30.737 9.008 30.873 8.412 31.145 7.9C31.425 7.38 31.813 6.98 32.309 6.7C32.813 6.42 33.389 6.28 34.037 6.28C34.661 6.28 35.217 6.416 35.705 6.688C36.193 6.96 36.573 7.344 36.845 7.84C37.117 8.328 37.253 8.892 37.253 9.532ZM35.825 9.1C35.817 8.596 35.637 8.192 35.285 7.888C34.933 7.584 34.497 7.432 33.977 7.432C33.505 7.432 33.101 7.584 32.765 7.888C32.429 8.184 32.229 8.588 32.165 9.1H35.825ZM40.1952 7.504V11.164C40.1952 11.412 40.2512 11.592 40.3632 11.704C40.4832 11.808 40.6832 11.86 40.9632 11.86H41.8032V13H40.7232C40.1072 13 39.6352 12.856 39.3072 12.568C38.9792 12.28 38.8152 11.812 38.8152 11.164V7.504H38.0352V6.388H38.8152V4.744H40.1952V6.388H41.8032V7.504H40.1952ZM47.5493 7.36C47.7813 7.056 48.0973 6.8 48.4973 6.592C48.8973 6.384 49.3493 6.28 49.8533 6.28C50.4293 6.28 50.9533 6.424 51.4253 6.712C51.9053 6.992 52.2813 7.388 52.5533 7.9C52.8253 8.412 52.9613 9 52.9613 9.664C52.9613 10.328 52.8253 10.924 52.5533 11.452C52.2813 11.972 51.9053 12.38 51.4253 12.676C50.9533 12.964 50.4293 13.108 49.8533 13.108C49.3493 13.108 48.9013 13.008 48.5093 12.808C48.1173 12.6 47.7973 12.344 47.5493 12.04V16.144H46.1813V6.388H47.5493V7.36ZM51.5693 9.664C51.5693 9.208 51.4733 8.816 51.2812 8.488C51.0973 8.152 50.8493 7.9 50.5373 7.732C50.2333 7.556 49.9053 7.468 49.5533 7.468C49.2093 7.468 48.8813 7.556 48.5693 7.732C48.2653 7.908 48.0173 8.164 47.8253 8.5C47.6413 8.836 47.5493 9.232 47.5493 9.688C47.5493 10.144 47.6413 10.544 47.8253 10.888C48.0173 11.224 48.2653 11.48 48.5693 11.656C48.8813 11.832 49.2093 11.92 49.5533 11.92C49.9053 11.92 50.2333 11.832 50.5373 11.656C50.8493 11.472 51.0973 11.208 51.2812 10.864C51.4733 10.52 51.5693 10.12 51.5693 9.664ZM55.6821 7.348C55.8821 7.012 56.1461 6.752 56.4741 6.568C56.8101 6.376 57.2061 6.28 57.6621 6.28V7.696H57.3141C56.7781 7.696 56.3701 7.832 56.0901 8.104C55.8181 8.376 55.6821 8.848 55.6821 9.52V13H54.3141V6.388H55.6821V7.348ZM61.7875 13.108C61.1635 13.108 60.5995 12.968 60.0955 12.688C59.5915 12.4 59.1955 12 58.9075 11.488C58.6195 10.968 58.4755 10.368 58.4755 9.688C58.4755 9.016 58.6235 8.42 58.9195 7.9C59.2155 7.38 59.6195 6.98 60.1315 6.7C60.6435 6.42 61.2155 6.28 61.8475 6.28C62.4795 6.28 63.0515 6.42 63.5635 6.7C64.0755 6.98 64.4795 7.38 64.7755 7.9C65.0715 8.42 65.2195 9.016 65.2195 9.688C65.2195 10.36 65.0675 10.956 64.7635 11.476C64.4595 11.996 64.0435 12.4 63.5155 12.688C62.9955 12.968 62.4195 13.108 61.7875 13.108ZM61.7875 11.92C62.1395 11.92 62.4675 11.836 62.7715 11.668C63.0835 11.5 63.3355 11.248 63.5275 10.912C63.7195 10.576 63.8155 10.168 63.8155 9.688C63.8155 9.208 63.7235 8.804 63.5395 8.476C63.3555 8.14 63.1115 7.888 62.8075 7.72C62.5035 7.552 62.1755 7.468 61.8235 7.468C61.4715 7.468 61.1435 7.552 60.8395 7.72C60.5435 7.888 60.3075 8.14 60.1315 8.476C59.9555 8.804 59.8675 9.208 59.8675 9.688C59.8675 10.4 60.0475 10.952 60.4075 11.344C60.7755 11.728 61.2355 11.92 61.7875 11.92ZM69.3439 7.504H68.1199V13H66.7399V7.504H65.9599V6.388H66.7399V5.92C66.7399 5.16 66.9399 4.608 67.3399 4.264C67.7479 3.912 68.3839 3.736 69.2479 3.736V4.876C68.8319 4.876 68.5399 4.956 68.3719 5.116C68.2039 5.268 68.1199 5.536 68.1199 5.92V6.388H69.3439V7.504ZM71.2523 5.512C71.0043 5.512 70.7963 5.428 70.6283 5.26C70.4603 5.092 70.3763 4.884 70.3763 4.636C70.3763 4.388 70.4603 4.18 70.6283 4.012C70.7963 3.844 71.0043 3.76 71.2523 3.76C71.4923 3.76 71.6963 3.844 71.8643 4.012C72.0323 4.18 72.1163 4.388 72.1163 4.636C72.1163 4.884 72.0323 5.092 71.8643 5.26C71.6963 5.428 71.4923 5.512 71.2523 5.512ZM71.9243 6.388V13H70.5563V6.388H71.9243ZM75.3163 7.504V11.164C75.3163 11.412 75.3723 11.592 75.4843 11.704C75.6043 11.808 75.8043 11.86 76.0843 11.86H76.9243V13H75.8443C75.2283 13 74.7563 12.856 74.4283 12.568C74.1003 12.28 73.9363 11.812 73.9363 11.164V7.504H73.1563V6.388H73.9363V4.744H75.3163V6.388H76.9243V7.504H75.3163Z" fill="#DCCD00"/>
<path d="M0.496094 14.6656V16C0.496094 17.1031 3.18359 18 6.49609 18C9.80859 18 12.4961 17.1031 12.4961 16V14.6656C11.2055 15.575 8.84609 16 6.49609 16C4.14609 16 1.78672 15.575 0.496094 14.6656ZM10.4961 6C13.8086 6 16.4961 5.10313 16.4961 4C16.4961 2.89688 13.8086 2 10.4961 2C7.18359 2 4.49609 2.89688 4.49609 4C4.49609 5.10313 7.18359 6 10.4961 6ZM0.496094 11.3875V13C0.496094 14.1031 3.18359 15 6.49609 15C9.80859 15 12.4961 14.1031 12.4961 13V11.3875C11.2055 12.45 8.84297 13 6.49609 13C4.14922 13 1.78672 12.45 0.496094 11.3875ZM13.4961 11.7312C15.2867 11.3844 16.4961 10.7406 16.4961 10V8.66563C15.7711 9.17812 14.7055 9.52813 13.4961 9.74375V11.7312ZM6.49609 7C3.18359 7 0.496094 8.11875 0.496094 9.5C0.496094 10.8813 3.18359 12 6.49609 12C9.80859 12 12.4961 10.8813 12.4961 9.5C12.4961 8.11875 9.80859 7 6.49609 7ZM13.3492 8.75938C15.2242 8.42188 16.4961 7.75938 16.4961 7V5.66563C15.3867 6.45 13.4805 6.87188 11.4742 6.97188C12.3961 7.41875 13.0742 8.01875 13.3492 8.75938Z" fill="#DCCD00"/>
</svg>
