<svg width="34" height="34" viewBox="0 0 34 34" fill="none" xmlns="http://www.w3.org/2000/svg">
<path d="M7.08333 25.4999H26.9167V15.6272C26.9167 10.1263 22.4768 5.66659 17 5.66659C11.5232 5.66659 7.08333 10.1263 7.08333 15.6272V25.4999ZM17 2.83325C24.0408 2.83325 29.75 8.56084 29.75 15.6272V28.3333H4.25V15.6272C4.25 8.56084 9.95917 2.83325 17 2.83325ZM13.4583 29.7499H20.5417C20.5417 30.6892 20.1685 31.5901 19.5043 32.2543C18.8401 32.9184 17.9393 33.2916 17 33.2916C16.0607 33.2916 15.1599 32.9184 14.4957 32.2543C13.8315 31.5901 13.4583 30.6892 13.4583 29.7499Z" fill="black"/>
</svg>
