<svg width="67" height="22" viewBox="0 0 67 22" fill="none" xmlns="http://www.w3.org/2000/svg">
<path d="M31.268 16.2508C30.644 16.2508 30.08 16.1108 29.576 15.8308C29.072 15.5428 28.676 15.1428 28.388 14.6308C28.1 14.1108 27.956 13.5108 27.956 12.8308C27.956 12.1588 28.104 11.5628 28.4 11.0428C28.696 10.5228 29.1 10.1228 29.612 9.84282C30.124 9.56282 30.696 9.42282 31.328 9.42282C31.96 9.42282 32.532 9.56282 33.044 9.84282C33.556 10.1228 33.96 10.5228 34.256 11.0428C34.552 11.5628 34.7 12.1588 34.7 12.8308C34.7 13.5028 34.548 14.0988 34.244 14.6188C33.94 15.1388 33.524 15.5428 32.996 15.8308C32.476 16.1108 31.9 16.2508 31.268 16.2508ZM31.268 15.0628C31.62 15.0628 31.948 14.9788 32.252 14.8108C32.564 14.6428 32.816 14.3908 33.008 14.0548C33.2 13.7188 33.296 13.3108 33.296 12.8308C33.296 12.3508 33.204 11.9468 33.02 11.6188C32.836 11.2828 32.592 11.0308 32.288 10.8628C31.984 10.6948 31.656 10.6108 31.304 10.6108C30.952 10.6108 30.624 10.6948 30.32 10.8628C30.024 11.0308 29.788 11.2828 29.612 11.6188C29.436 11.9468 29.348 12.3508 29.348 12.8308C29.348 13.5428 29.528 14.0948 29.888 14.4868C30.256 14.8708 30.716 15.0628 31.268 15.0628ZM44.0563 9.42282C44.5763 9.42282 45.0403 9.53082 45.4483 9.74682C45.8643 9.96282 46.1883 10.2828 46.4203 10.7068C46.6603 11.1308 46.7803 11.6428 46.7803 12.2428V16.1428H45.4243V12.4468C45.4243 11.8548 45.2763 11.4028 44.9803 11.0908C44.6843 10.7708 44.2803 10.6108 43.7683 10.6108C43.2563 10.6108 42.8483 10.7708 42.5443 11.0908C42.2483 11.4028 42.1003 11.8548 42.1003 12.4468V16.1428H40.7443V12.4468C40.7443 11.8548 40.5963 11.4028 40.3003 11.0908C40.0043 10.7708 39.6003 10.6108 39.0883 10.6108C38.5763 10.6108 38.1683 10.7708 37.8643 11.0908C37.5683 11.4028 37.4203 11.8548 37.4203 12.4468V16.1428H36.0523V9.53082H37.4203V10.2868C37.6443 10.0148 37.9283 9.80282 38.2723 9.65082C38.6163 9.49882 38.9843 9.42282 39.3763 9.42282C39.9043 9.42282 40.3763 9.53482 40.7923 9.75882C41.2083 9.98282 41.5283 10.3068 41.7523 10.7308C41.9523 10.3308 42.2643 10.0148 42.6883 9.78282C43.1123 9.54282 43.5683 9.42282 44.0563 9.42282ZM50.9211 16.2508C50.4011 16.2508 49.9331 16.1588 49.5171 15.9748C49.1091 15.7828 48.7851 15.5268 48.5451 15.2068C48.3051 14.8788 48.1771 14.5148 48.1611 14.1148H49.5771C49.6011 14.3948 49.7331 14.6308 49.9731 14.8228C50.2211 15.0068 50.5291 15.0988 50.8971 15.0988C51.2811 15.0988 51.5771 15.0268 51.7851 14.8828C52.0011 14.7308 52.1091 14.5388 52.1091 14.3068C52.1091 14.0588 51.9891 13.8748 51.7491 13.7548C51.5171 13.6348 51.1451 13.5028 50.6331 13.3588C50.1371 13.2228 49.7331 13.0908 49.4211 12.9628C49.1091 12.8348 48.8371 12.6388 48.6051 12.3748C48.3811 12.1108 48.2691 11.7628 48.2691 11.3308C48.2691 10.9788 48.3731 10.6588 48.5811 10.3708C48.7891 10.0748 49.0851 9.84282 49.4691 9.67482C49.8611 9.50682 50.3091 9.42282 50.8131 9.42282C51.5651 9.42282 52.1691 9.61482 52.6251 9.99882C53.0891 10.3748 53.3371 10.8908 53.3691 11.5468H52.0011C51.9771 11.2508 51.8571 11.0148 51.6411 10.8388C51.4251 10.6628 51.1331 10.5748 50.7651 10.5748C50.4051 10.5748 50.1291 10.6428 49.9371 10.7788C49.7451 10.9148 49.6491 11.0948 49.6491 11.3188C49.6491 11.4948 49.7131 11.6428 49.8411 11.7628C49.9691 11.8828 50.1251 11.9788 50.3091 12.0508C50.4931 12.1148 50.7651 12.1988 51.1251 12.3028C51.6051 12.4308 51.9971 12.5628 52.3011 12.6988C52.6131 12.8268 52.8811 13.0188 53.1051 13.2748C53.3291 13.5308 53.4451 13.8708 53.4531 14.2948C53.4531 14.6708 53.3491 15.0068 53.1411 15.3028C52.9331 15.5988 52.6371 15.8308 52.2531 15.9988C51.8771 16.1668 51.4331 16.2508 50.9211 16.2508ZM60.9913 12.6748C60.9913 12.9228 60.9753 13.1468 60.9433 13.3468H55.8913C55.9313 13.8748 56.1273 14.2988 56.4793 14.6188C56.8313 14.9388 57.2633 15.0988 57.7753 15.0988C58.5113 15.0988 59.0313 14.7908 59.3353 14.1748H60.8112C60.6113 14.7828 60.2473 15.2828 59.7193 15.6748C59.1993 16.0588 58.5513 16.2508 57.7753 16.2508C57.1433 16.2508 56.5753 16.1108 56.0713 15.8308C55.5753 15.5428 55.1833 15.1428 54.8953 14.6308C54.6153 14.1108 54.4753 13.5108 54.4753 12.8308C54.4753 12.1508 54.6113 11.5548 54.8833 11.0428C55.1633 10.5228 55.5513 10.1228 56.0473 9.84282C56.5513 9.56282 57.1273 9.42282 57.7753 9.42282C58.3993 9.42282 58.9553 9.55882 59.4433 9.83082C59.9313 10.1028 60.3113 10.4868 60.5833 10.9828C60.8553 11.4708 60.9913 12.0348 60.9913 12.6748ZM59.5633 12.2428C59.5553 11.7388 59.3753 11.3348 59.0233 11.0308C58.6713 10.7268 58.2353 10.5748 57.7153 10.5748C57.2433 10.5748 56.8393 10.7268 56.5033 11.0308C56.1673 11.3268 55.9673 11.7308 55.9033 12.2428H59.5633ZM63.9335 10.6468V14.3068C63.9335 14.5548 63.9895 14.7348 64.1015 14.8468C64.2215 14.9508 64.4215 15.0028 64.7015 15.0028H65.5415V16.1428H64.4615C63.8455 16.1428 63.3735 15.9988 63.0455 15.7108C62.7175 15.4228 62.5535 14.9548 62.5535 14.3068V10.6468H61.7735V9.53082H62.5535V7.88682H63.9335V9.53082H65.5415V10.6468H63.9335Z" fill="#00D24D"/>
<path d="M16.8295 10.5001C16.8295 10.3454 16.891 10.197 17.0004 10.0876C17.1098 9.97821 17.2581 9.91675 17.4128 9.91675H21.4962C21.6509 9.91675 21.7993 9.97821 21.9087 10.0876C22.0181 10.197 22.0795 10.3454 22.0795 10.5001V14.5834C22.0795 14.7381 22.0181 14.8865 21.9087 14.9959C21.7993 15.1053 21.6509 15.1667 21.4962 15.1667C21.3415 15.1667 21.1931 15.1053 21.0837 14.9959C20.9743 14.8865 20.9128 14.7381 20.9128 14.5834V11.9082L14.9092 17.9131C14.855 17.9674 14.7906 18.0105 14.7198 18.0399C14.6489 18.0693 14.5729 18.0845 14.4962 18.0845C14.4195 18.0845 14.3435 18.0693 14.2726 18.0399C14.2017 18.0105 14.1374 17.9674 14.0832 17.9131L10.9962 14.8249L7.90918 17.9131C7.79965 18.0226 7.65108 18.0842 7.49618 18.0842C7.34127 18.0842 7.19271 18.0226 7.08318 17.9131C6.97365 17.8035 6.91211 17.655 6.91211 17.5001C6.91211 17.3452 6.97365 17.1966 7.08318 17.0871L10.5832 13.5871C10.6374 13.5328 10.7017 13.4897 10.7726 13.4603C10.8435 13.4308 10.9195 13.4157 10.9962 13.4157C11.0729 13.4157 11.1489 13.4308 11.2198 13.4603C11.2906 13.4897 11.355 13.5328 11.4092 13.5871L14.4962 16.6752L20.088 11.0834H17.4128C17.2581 11.0834 17.1098 11.022 17.0004 10.9126C16.891 10.8032 16.8295 10.6548 16.8295 10.5001Z" fill="#00D24D"/>
</svg>
