<svg width="27" height="26" viewBox="0 0 27 26" fill="none" xmlns="http://www.w3.org/2000/svg">
<path d="M13.5333 11.8083C11.0742 11.1692 10.2833 10.5083 10.2833 9.47917C10.2833 8.29833 11.3775 7.475 13.2083 7.475C14.7467 7.475 15.5158 8.06 15.7975 8.99167C15.9275 9.425 16.285 9.75 16.74 9.75H17.065C17.78 9.75 18.2892 9.04583 18.04 8.37417C17.585 7.09583 16.5233 6.03417 14.8333 5.6225V4.875C14.8333 3.97583 14.1075 3.25 13.2083 3.25C12.3092 3.25 11.5833 3.97583 11.5833 4.875V5.59C9.48167 6.045 7.79167 7.41 7.79167 9.50083C7.79167 12.0033 9.86083 13.2492 12.8833 13.975C15.5917 14.625 16.1333 15.5783 16.1333 16.5858C16.1333 17.3333 15.6025 18.525 13.2083 18.525C11.4208 18.525 10.5 17.8858 10.1425 16.9758C9.98 16.5533 9.61167 16.25 9.1675 16.25H8.86417C8.13833 16.25 7.62917 16.9867 7.9 17.6583C8.5175 19.1642 9.95833 20.0525 11.5833 20.3992V21.125C11.5833 22.0242 12.3092 22.75 13.2083 22.75C14.1075 22.75 14.8333 22.0242 14.8333 21.125V20.4208C16.9458 20.02 18.625 18.7958 18.625 16.575C18.625 13.4983 15.9925 12.4475 13.5333 11.8083Z" fill="#E4763F"/>
</svg>
