<svg width="26" height="26" viewBox="0 0 26 26" fill="none" xmlns="http://www.w3.org/2000/svg">
<path d="M11.5417 7.475C13.08 7.475 13.8492 8.06 14.1308 8.99167C14.2717 9.4575 14.7375 9.75 15.225 9.75H15.29C16.0483 9.75 16.6117 8.98083 16.3408 8.27667C15.8642 7.03083 14.8133 6.02333 13.1667 5.6225V4.875C13.1667 3.97583 12.4408 3.25 11.5417 3.25C10.6425 3.25 9.91667 3.97583 9.91667 4.875V5.59C9.49417 5.67667 9.10417 5.8175 8.725 5.98L10.3608 7.61583C10.7075 7.52917 11.1083 7.475 11.5417 7.475ZM3.1675 5.005C3.06707 5.10522 2.98739 5.22427 2.93303 5.35532C2.87867 5.48638 2.85069 5.62687 2.85069 5.76875C2.85069 5.91063 2.87867 6.05112 2.93303 6.18218C2.98739 6.31323 3.06707 6.43228 3.1675 6.5325L6.125 9.50083C6.125 11.7542 7.815 12.9892 10.3608 13.7367L14.1633 17.5392C13.795 18.07 13.0258 18.525 11.5417 18.525C9.75417 18.525 8.83333 17.8858 8.47583 16.9758C8.31333 16.5533 7.945 16.25 7.50083 16.25H7.31667C6.53667 16.25 5.97333 17.0517 6.2875 17.7558C6.92667 19.1967 8.335 20.0525 9.9275 20.3992V21.125C9.9275 22.0242 10.6533 22.75 11.5525 22.75C12.4517 22.75 13.1775 22.0242 13.1775 21.125V20.4208C14.2175 20.2258 15.16 19.825 15.8425 19.2075L17.4783 20.8433C17.5786 20.9436 17.6977 21.0232 17.8287 21.0775C17.9598 21.1318 18.1002 21.1597 18.2421 21.1597C18.3839 21.1597 18.5244 21.1318 18.6554 21.0775C18.7865 21.0232 18.9055 20.9436 19.0058 20.8433C19.1061 20.743 19.1857 20.624 19.24 20.4929C19.2943 20.3619 19.3222 20.2214 19.3222 20.0796C19.3222 19.9377 19.2943 19.7973 19.24 19.6662C19.1857 19.5352 19.1061 19.4161 19.0058 19.3158L4.695 5.005C4.59478 4.90457 4.47573 4.82489 4.34468 4.77053C4.21362 4.71617 4.07313 4.68819 3.93125 4.68819C3.78937 4.68819 3.64888 4.71617 3.51782 4.77053C3.38677 4.82489 3.26772 4.90457 3.1675 5.005Z" fill="black"/>
</svg>
