<svg width="23" height="23" viewBox="0 0 23 23" fill="none" xmlns="http://www.w3.org/2000/svg">
<path d="M9.5 5.03125C10.7401 5.03146 11.9539 5.38809 12.9971 6.05869C14.0402 6.72928 14.8685 7.68557 15.3835 8.81365C15.8985 9.94173 16.0784 11.1941 15.9017 12.4215C15.7251 13.6489 15.1993 14.7997 14.3871 15.7368C13.5749 16.6738 12.5105 17.3577 11.3206 17.7069C10.1308 18.0562 8.86558 18.056 7.67578 17.7065C6.48598 17.357 5.42172 16.6729 4.60974 15.7356C3.79777 14.7984 3.2723 13.6475 3.09594 12.42C3.05553 12.1369 2.90432 11.8815 2.67557 11.7099C2.44683 11.5383 2.1593 11.4646 1.87622 11.505C1.59314 11.5454 1.33771 11.6967 1.16612 11.9254C0.994533 12.1541 0.920838 12.4417 0.96125 12.7248C1.23384 14.6279 2.13436 16.3854 3.51983 17.7183C4.90531 19.0512 6.69634 19.8831 8.60857 20.0818C10.5208 20.2806 12.4446 19.8349 14.0747 18.8155C15.7047 17.7961 16.9474 16.2614 17.6056 14.455C18.2639 12.6487 18.2998 10.6742 17.7078 8.84512C17.1157 7.01601 15.9296 5.4371 14.3378 4.35905C12.7459 3.28099 10.8396 2.76559 8.92137 2.89467C7.00317 3.02375 5.18306 3.7899 3.75 5.0715V3.95313C3.75 3.66719 3.63641 3.39296 3.43423 3.19078C3.23204 2.98859 2.95781 2.875 2.67188 2.875C2.38594 2.875 2.11171 2.98859 1.90953 3.19078C1.70734 3.39296 1.59375 3.66719 1.59375 3.95313V8.26563C1.59375 8.86075 2.07675 9.34375 2.67188 9.34375H6.26563C6.55156 9.34375 6.82579 9.23016 7.02798 9.02798C7.23016 8.82579 7.34375 8.55156 7.34375 8.26563C7.34375 7.97969 7.23016 7.70546 7.02798 7.50328C6.82579 7.30109 6.55156 7.1875 6.26563 7.1875H4.67863C5.28536 6.50915 6.02842 5.96646 6.85922 5.5949C7.69003 5.22334 8.58989 5.03127 9.5 5.03125ZM10.2188 8.26563C10.2188 7.97969 10.1052 7.70546 9.90297 7.50328C9.70079 7.30109 9.42656 7.1875 9.14062 7.1875C8.85469 7.1875 8.58046 7.30109 8.37828 7.50328C8.17609 7.70546 8.0625 7.97969 8.0625 8.26563V11.8594C8.0625 12.4545 8.5455 12.9375 9.14062 12.9375H12.0156C12.3016 12.9375 12.5758 12.8239 12.778 12.6217C12.9802 12.4195 13.0938 12.1453 13.0938 11.8594C13.0938 11.5734 12.9802 11.2992 12.778 11.097C12.5758 10.8948 12.3016 10.7813 12.0156 10.7813H10.2188V8.26563Z" fill="black"/>
</svg>
